<svg xmlns="http://www.w3.org/2000/svg" viewBox="0 0 36 36">
  <rect width="36" height="36" rx="8" fill="#F05138"/>
  <path d="M22.5 25.6c-.3.1-.7.2-1 .3-.4.1-.8.1-1.2.1-3.8 0-7.7-3.2-7.7-3.2 4.5 1.5 7.5.3 7.5.3-3.5-2.5-6.3-5.8-8.2-9.5 0 0 1.2 1.5 2 2.2-2.5-2.8-4.1-6.2-4.1-6.2.6.8 1.3 1.4 1.3 1.4C8.5 7.2 9.2 4 9.2 4c1.2 3 3 5.6 5.2 7.7C16.7 9.5 20 8.2 20 8.2l-1.5 1c2.3-1 5-1.5 5-1.5-1.5 1-2.8 2.3-3.8 3.5 2.8 2.8 4.5 5.8 4.5 5.8-.8-1-2-2.2-3.5-3.3.8 2 1 4.2.5 6.3-.3 1.2-.8 2.5-1.5 3.5 1.8-1.3 3-3 3.8-5 0 0 .2 2.5-1 5.1z" fill="white"/>
</svg>
